<svg width="420" height="82" viewBox="0 0 420 82" fill="none" xmlns="http://www.w3.org/2000/svg">
<path d="M48.6875 64H40.5625V53H12V64H3.875V41.5938C3.875 38.3229 4.4375 35.3125 5.5625 32.5625C6.6875 29.8125 8.25 27.4479 10.25 25.4688C12.25 23.4896 14.6146 21.9479 17.3438 20.8438C20.0729 19.7396 23.0521 19.1875 26.2812 19.1875H44.5938C45.1562 19.1875 45.6875 19.2917 46.1875 19.5C46.6875 19.7083 47.125 20 47.5 20.375C47.875 20.75 48.1667 21.1875 48.375 21.6875C48.5833 22.1875 48.6875 22.7188 48.6875 23.2812V64ZM12 44.875H40.5625V27.3125H26.2812C26.0312 27.3125 25.5 27.3542 24.6875 27.4375C23.8958 27.5 22.9688 27.6771 21.9062 27.9688C20.8646 28.2604 19.7604 28.7083 18.5938 29.3125C17.4271 29.9167 16.3542 30.75 15.375 31.8125C14.3958 32.875 13.5833 34.2083 12.9375 35.8125C12.3125 37.3958 12 39.3229 12 41.5938V44.875ZM87.0703 64H65.0859C64.5234 64 63.9141 63.9375 63.2578 63.8125C62.6172 63.6719 61.9766 63.4609 61.3359 63.1797C60.7109 62.8984 60.1094 62.5391 59.5312 62.1016C58.9531 61.6484 58.4375 61.1094 57.9844 60.4844C57.5469 59.8438 57.1953 59.1094 56.9297 58.2812C56.6641 57.4375 56.5312 56.4922 56.5312 55.4453V38.9453C56.5312 38.3828 56.5938 37.7812 56.7188 37.1406C56.8594 36.4844 57.0703 35.8438 57.3516 35.2188C57.6328 34.5781 58 33.9688 58.4531 33.3906C58.9062 32.8125 59.4453 32.3047 60.0703 31.8672C60.7109 31.4141 61.4453 31.0547 62.2734 30.7891C63.1016 30.5234 64.0391 30.3906 65.0859 30.3906H87.0703V36.4844H65.0859C64.2891 36.4844 63.6797 36.6953 63.2578 37.1172C62.8359 37.5391 62.625 38.1641 62.625 38.9922V55.4453C62.625 56.2266 62.8359 56.8359 63.2578 57.2734C63.6953 57.6953 64.3047 57.9062 65.0859 57.9062H87.0703V64ZM122.648 64H100.664C100.102 64 99.4922 63.9375 98.8359 63.8125C98.1953 63.6719 97.5547 63.4609 96.9141 63.1797C96.2891 62.8984 95.6875 62.5391 95.1094 62.1016C94.5312 61.6484 94.0156 61.1094 93.5625 60.4844C93.125 59.8438 92.7734 59.1094 92.5078 58.2812C92.2422 57.4375 92.1094 56.4922 92.1094 55.4453V38.9453C92.1094 38.3828 92.1719 37.7812 92.2969 37.1406C92.4375 36.4844 92.6484 35.8438 92.9297 35.2188C93.2109 34.5781 93.5781 33.9688 94.0312 33.3906C94.4844 32.8125 95.0234 32.3047 95.6484 31.8672C96.2891 31.4141 97.0234 31.0547 97.8516 30.7891C98.6797 30.5234 99.6172 30.3906 100.664 30.3906H122.648V36.4844H100.664C99.8672 36.4844 99.2578 36.6953 98.8359 37.1172C98.4141 37.5391 98.2031 38.1641 98.2031 38.9922V55.4453C98.2031 56.2266 98.4141 56.8359 98.8359 57.2734C99.2734 57.6953 99.8828 57.9062 100.664 57.9062H122.648V64ZM156.047 50.2656H136.805V44.125H156.047V50.2656ZM158.789 64H136.805C135.961 64 135.039 63.8516 134.039 63.5547C133.039 63.2578 132.109 62.7734 131.25 62.1016C130.406 61.4141 129.695 60.5312 129.117 59.4531C128.555 58.3594 128.273 57.0234 128.273 55.4453V33.4609C128.273 33.0391 128.352 32.6406 128.508 32.2656C128.664 31.8906 128.875 31.5625 129.141 31.2812C129.422 31 129.75 30.7812 130.125 30.625C130.5 30.4688 130.906 30.3906 131.344 30.3906H158.789V36.4844H134.367V55.4453C134.367 56.2422 134.578 56.8516 135 57.2734C135.422 57.6953 136.039 57.9062 136.852 57.9062H158.789V64ZM196.852 54.1094C196.852 55.3125 196.695 56.3984 196.383 57.3672C196.086 58.3203 195.688 59.1641 195.188 59.8984C194.688 60.6328 194.102 61.2578 193.43 61.7734C192.758 62.2891 192.062 62.7109 191.344 63.0391C190.625 63.3672 189.891 63.6094 189.141 63.7656C188.406 63.9219 187.711 64 187.055 64H163.547V57.9062H187.055C188.227 57.9062 189.133 57.5625 189.773 56.875C190.43 56.1875 190.758 55.2656 190.758 54.1094C190.758 53.5469 190.672 53.0312 190.5 52.5625C190.328 52.0938 190.078 51.6875 189.75 51.3438C189.438 51 189.047 50.7344 188.578 50.5469C188.125 50.3594 187.617 50.2656 187.055 50.2656H173.039C172.055 50.2656 170.992 50.0938 169.852 49.75C168.711 49.3906 167.648 48.8203 166.664 48.0391C165.695 47.2578 164.883 46.2344 164.227 44.9688C163.586 43.7031 163.266 42.1562 163.266 40.3281C163.266 38.5 163.586 36.9609 164.227 35.7109C164.883 34.4453 165.695 33.4219 166.664 32.6406C167.648 31.8438 168.711 31.2734 169.852 30.9297C170.992 30.5703 172.055 30.3906 173.039 30.3906H193.781V36.4844H173.039C171.883 36.4844 170.977 36.8359 170.32 37.5391C169.68 38.2422 169.359 39.1719 169.359 40.3281C169.359 41.5 169.68 42.4297 170.32 43.1172C170.977 43.7891 171.883 44.125 173.039 44.125H187.055H187.102C187.758 44.1406 188.453 44.2344 189.188 44.4062C189.922 44.5625 190.648 44.8125 191.367 45.1562C192.102 45.5 192.797 45.9375 193.453 46.4688C194.109 46.9844 194.688 47.6094 195.188 48.3438C195.703 49.0781 196.109 49.9219 196.406 50.875C196.703 51.8281 196.852 52.9062 196.852 54.1094ZM234.211 54.1094C234.211 55.3125 234.055 56.3984 233.742 57.3672C233.445 58.3203 233.047 59.1641 232.547 59.8984C232.047 60.6328 231.461 61.2578 230.789 61.7734C230.117 62.2891 229.422 62.7109 228.703 63.0391C227.984 63.3672 227.25 63.6094 226.5 63.7656C225.766 63.9219 225.07 64 224.414 64H200.906V57.9062H224.414C225.586 57.9062 226.492 57.5625 227.133 56.875C227.789 56.1875 228.117 55.2656 228.117 54.1094C228.117 53.5469 228.031 53.0312 227.859 52.5625C227.688 52.0938 227.438 51.6875 227.109 51.3438C226.797 51 226.406 50.7344 225.938 50.5469C225.484 50.3594 224.977 50.2656 224.414 50.2656H210.398C209.414 50.2656 208.352 50.0938 207.211 49.75C206.07 49.3906 205.008 48.8203 204.023 48.0391C203.055 47.2578 202.242 46.2344 201.586 44.9688C200.945 43.7031 200.625 42.1562 200.625 40.3281C200.625 38.5 200.945 36.9609 201.586 35.7109C202.242 34.4453 203.055 33.4219 204.023 32.6406C205.008 31.8438 206.07 31.2734 207.211 30.9297C208.352 30.5703 209.414 30.3906 210.398 30.3906H231.141V36.4844H210.398C209.242 36.4844 208.336 36.8359 207.68 37.5391C207.039 38.2422 206.719 39.1719 206.719 40.3281C206.719 41.5 207.039 42.4297 207.68 43.1172C208.336 43.7891 209.242 44.125 210.398 44.125H224.414H224.461C225.117 44.1406 225.812 44.2344 226.547 44.4062C227.281 44.5625 228.008 44.8125 228.727 45.1562C229.461 45.5 230.156 45.9375 230.812 46.4688C231.469 46.9844 232.047 47.6094 232.547 48.3438C233.062 49.0781 233.469 49.9219 233.766 50.875C234.062 51.8281 234.211 52.9062 234.211 54.1094ZM274.547 50.4062C274.547 52.4531 274.195 54.3359 273.492 56.0547C272.789 57.7734 271.812 59.2578 270.562 60.5078C269.312 61.7578 267.828 62.7344 266.109 63.4375C264.406 64.125 262.547 64.4688 260.531 64.4688H252.281C250.266 64.4688 248.398 64.125 246.68 63.4375C244.961 62.7344 243.477 61.7578 242.227 60.5078C240.977 59.2578 239.992 57.7734 239.273 56.0547C238.57 54.3359 238.219 52.4531 238.219 50.4062V43.9844C238.219 41.9531 238.57 40.0781 239.273 38.3594C239.992 36.625 240.977 35.1406 242.227 33.9062C243.477 32.6562 244.961 31.6797 246.68 30.9766C248.398 30.2734 250.266 29.9219 252.281 29.9219H260.531C262.547 29.9219 264.406 30.2734 266.109 30.9766C267.828 31.6797 269.312 32.6562 270.562 33.9062C271.812 35.1406 272.789 36.625 273.492 38.3594C274.195 40.0781 274.547 41.9531 274.547 43.9844V50.4062ZM268.453 43.9844C268.453 42.7812 268.258 41.6953 267.867 40.7266C267.492 39.7422 266.953 38.9062 266.25 38.2188C265.562 37.5156 264.727 36.9766 263.742 36.6016C262.773 36.2109 261.703 36.0156 260.531 36.0156H252.281C251.094 36.0156 250.008 36.2109 249.023 36.6016C248.055 36.9766 247.219 37.5156 246.516 38.2188C245.812 38.9062 245.266 39.7422 244.875 40.7266C244.5 41.6953 244.312 42.7812 244.312 43.9844V50.4062C244.312 51.6094 244.5 52.7031 244.875 53.6875C245.266 54.6562 245.812 55.4922 246.516 56.1953C247.219 56.8828 248.055 57.4219 249.023 57.8125C250.008 58.1875 251.094 58.375 252.281 58.375H260.484C261.672 58.375 262.75 58.1875 263.719 57.8125C264.703 57.4219 265.547 56.8828 266.25 56.1953C266.953 55.4922 267.492 54.6562 267.867 53.6875C268.258 52.7031 268.453 51.6094 268.453 50.4062V43.9844ZM314.156 41.6875C314.156 43.0781 313.984 44.3203 313.641 45.4141C313.297 46.5078 312.828 47.4766 312.234 48.3203C311.656 49.1484 310.984 49.8594 310.219 50.4531C309.453 51.0469 308.648 51.5391 307.805 51.9297C306.977 52.3047 306.133 52.5781 305.273 52.75C304.43 52.9219 303.633 53.0078 302.883 53.0078L315.609 64H306.188L293.484 53.0078H289.102V46.9141H302.883C303.648 46.8516 304.344 46.6953 304.969 46.4453C305.609 46.1797 306.156 45.8281 306.609 45.3906C307.078 44.9531 307.438 44.4297 307.688 43.8203C307.938 43.1953 308.062 42.4844 308.062 41.6875V37.8438C308.062 37.5 308.016 37.2422 307.922 37.0703C307.844 36.8828 307.734 36.75 307.594 36.6719C307.469 36.5781 307.328 36.5234 307.172 36.5078C307.031 36.4922 306.898 36.4844 306.773 36.4844H286.664V64H280.57V33.4609C280.57 33.0391 280.648 32.6406 280.805 32.2656C280.961 31.8906 281.172 31.5625 281.438 31.2812C281.719 31 282.047 30.7812 282.422 30.625C282.797 30.4688 283.203 30.3906 283.641 30.3906H306.773C308.133 30.3906 309.281 30.6406 310.219 31.1406C311.156 31.625 311.914 32.2422 312.492 32.9922C313.086 33.7266 313.508 34.5234 313.758 35.3828C314.023 36.2422 314.156 37.0469 314.156 37.7969V41.6875ZM328.834 64H321.217V21.9883H328.834V64ZM364.488 50.2656H345.246V44.125H364.488V50.2656ZM367.23 64H345.246C344.402 64 343.48 63.8516 342.48 63.5547C341.48 63.2578 340.551 62.7734 339.691 62.1016C338.848 61.4141 338.137 60.5312 337.559 59.4531C336.996 58.3594 336.715 57.0234 336.715 55.4453V33.4609C336.715 33.0391 336.793 32.6406 336.949 32.2656C337.105 31.8906 337.316 31.5625 337.582 31.2812C337.863 31 338.191 30.7812 338.566 30.625C338.941 30.4688 339.348 30.3906 339.785 30.3906H367.23V36.4844H342.809V55.4453C342.809 56.2422 343.02 56.8516 343.441 57.2734C343.863 57.6953 344.48 57.9062 345.293 57.9062H367.23V64ZM417.379 50.8125C417.379 52.4167 417.171 53.8646 416.754 55.1562C416.358 56.4271 415.827 57.5521 415.16 58.5312C414.493 59.5104 413.712 60.3438 412.816 61.0312C411.921 61.7188 410.993 62.2812 410.035 62.7188C409.077 63.1562 408.098 63.4792 407.098 63.6875C406.118 63.8958 405.191 64 404.316 64H372.973V55.875H404.316C405.879 55.875 407.087 55.4167 407.941 54.5C408.816 53.5833 409.254 52.3542 409.254 50.8125C409.254 50.0625 409.139 49.375 408.91 48.75C408.681 48.125 408.348 47.5833 407.91 47.125C407.493 46.6667 406.973 46.3125 406.348 46.0625C405.743 45.8125 405.066 45.6875 404.316 45.6875H385.629C384.316 45.6875 382.9 45.4583 381.379 45C379.858 44.5208 378.441 43.7604 377.129 42.7188C375.837 41.6771 374.754 40.3125 373.879 38.625C373.025 36.9375 372.598 34.875 372.598 32.4375C372.598 30 373.025 27.9479 373.879 26.2812C374.754 24.5938 375.837 23.2292 377.129 22.1875C378.441 21.125 379.858 20.3646 381.379 19.9062C382.9 19.4271 384.316 19.1875 385.629 19.1875H413.285V27.3125H385.629C384.087 27.3125 382.879 27.7812 382.004 28.7188C381.15 29.6562 380.723 30.8958 380.723 32.4375C380.723 34 381.15 35.2396 382.004 36.1562C382.879 37.0521 384.087 37.5 385.629 37.5H404.316H404.379C405.254 37.5208 406.181 37.6458 407.16 37.875C408.139 38.0833 409.108 38.4167 410.066 38.875C411.046 39.3333 411.973 39.9167 412.848 40.625C413.723 41.3125 414.493 42.1458 415.16 43.125C415.848 44.1042 416.389 45.2292 416.785 46.5C417.181 47.7708 417.379 49.2083 417.379 50.8125Z" fill="#3E4148"/>
<line x1="55" y1="21" x2="313" y2="21" stroke="#3E4148" stroke-width="4"/>
<rect x="320" y="8" width="10" height="10" rx="5" fill="#3E4148"/>
<line x1="338" y1="21" x2="370" y2="21" stroke="#3E4148" stroke-width="4"/>
</svg>
