<svg width="32" height="32" viewBox="0 0 32 32" fill="none" xmlns="http://www.w3.org/2000/svg">
<path d="M9.99999 24C8.05507 24 6.18981 23.2274 4.81454 21.8521C3.43927 20.4769 2.66666 18.6116 2.66666 16.6667C2.66666 14.7218 3.43927 12.8565 4.81454 11.4812C6.18981 10.106 8.05507 9.33334 9.99999 9.33334H24C25.4145 9.33334 26.771 9.89525 27.7712 10.8954C28.7714 11.8956 29.3333 13.2522 29.3333 14.6667C29.3333 16.0812 28.7714 17.4377 27.7712 18.4379C26.771 19.4381 25.4145 20 24 20H12.6667C11.7826 20 10.9348 19.6488 10.3096 19.0237C9.68451 18.3986 9.33332 17.5507 9.33332 16.6667C9.33332 15.7826 9.68451 14.9348 10.3096 14.3097C10.9348 13.6845 11.7826 13.3333 12.6667 13.3333H22.6667V15.3333H12.6667C12.313 15.3333 11.9739 15.4738 11.7238 15.7239C11.4738 15.9739 11.3333 16.3131 11.3333 16.6667C11.3333 17.0203 11.4738 17.3594 11.7238 17.6095C11.9739 17.8595 12.313 18 12.6667 18H24C24.4377 18 24.8712 17.9138 25.2756 17.7463C25.68 17.5788 26.0475 17.3332 26.357 17.0237C26.6665 16.7142 26.9121 16.3467 27.0796 15.9423C27.2471 15.5379 27.3333 15.1044 27.3333 14.6667C27.3333 14.2289 27.2471 13.7955 27.0796 13.3911C26.9121 12.9866 26.6665 12.6192 26.357 12.3097C26.0475 12.0001 25.68 11.7546 25.2756 11.5871C24.8712 11.4196 24.4377 11.3333 24 11.3333H9.99999C8.5855 11.3333 7.22895 11.8952 6.22875 12.8954C5.22856 13.8956 4.66666 15.2522 4.66666 16.6667C4.66666 18.0812 5.22856 19.4377 6.22875 20.4379C7.22895 21.4381 8.5855 22 9.99999 22H22.6667V24H9.99999Z" fill="#6DAE49"/>
</svg>
